<?xml version="1.0" encoding="utf-8"?>
<!-- Generator: Adobe Illustrator 24.2.2, SVG Export Plug-In . SVG Version: 6.00 Build 0)  -->
<svg version="1.1" id="Capa_1" xmlns="http://www.w3.org/2000/svg" xmlns:xlink="http://www.w3.org/1999/xlink" x="0px" y="0px"
	 viewBox="0 0 200 200" enable-background="new 0 0 200 200" xml:space="preserve">
<g>
	<rect x="117.65" y="99.994" fill="#E4482E" width="11.764" height="11.764"/>
	<rect x="94.115" y="158.811" fill="#BB1E25" width="11.764" height="11.764"/>
	<rect x="129.415" y="76.466" fill="#E4482E" width="11.764" height="11.764"/>
	<rect x="188.228" y="41.189" fill="#252625" width="11.764" height="11.764"/>
	<rect x="152.935" y="29.425" fill="#BB1E25" width="11.764" height="11.764"/>
	<rect x="164.699" y="52.953" fill="#E4482E" width="11.764" height="11.764"/>
	<rect x="23.528" y="17.661" fill="#252625" width="11.764" height="11.764"/>
	<rect x="35.293" y="17.661" fill="#252625" width="11.764" height="11.764"/>
	<rect x="47.057" y="17.661" fill="#252625" width="11.764" height="11.764"/>
	<rect x="58.821" y="17.661" fill="#252625" width="11.764" height="11.764"/>
	<rect x="129.406" y="17.661" fill="#252625" width="11.764" height="11.764"/>
	<rect x="141.171" y="17.661" fill="#252625" width="11.764" height="11.764"/>
	<rect x="152.935" y="17.661" fill="#252625" width="11.764" height="11.764"/>
	<rect x="164.699" y="17.661" fill="#252625" width="11.764" height="11.764"/>
	<rect x="11.764" y="29.425" fill="#252625" width="11.764" height="11.764"/>
	<rect x="23.528" y="29.425" fill="#E4482E" width="11.764" height="11.764"/>
	<rect x="35.293" y="29.425" fill="#E4482E" width="11.764" height="11.764"/>
	<rect x="47.057" y="29.425" fill="#E4482E" width="11.764" height="11.764"/>
	<rect x="58.821" y="29.425" fill="#E4482E" width="11.764" height="11.764"/>
	<rect x="70.585" y="29.425" fill="#252625" width="11.764" height="11.764"/>
	<rect x="117.642" y="29.425" fill="#252625" width="11.764" height="11.764"/>
	<rect x="129.406" y="29.425" fill="#BB1E25" width="11.764" height="11.764"/>
	<rect x="141.171" y="29.425" fill="#BB1E25" width="11.764" height="11.764"/>
	<rect x="164.699" y="29.425" fill="#BB1E25" width="11.764" height="11.764"/>
	<rect x="176.463" y="29.425" fill="#252625" width="11.764" height="11.764"/>
	<rect y="41.189" fill="#252625" width="11.764" height="11.764"/>
	<rect x="11.764" y="41.189" fill="#E4482E" width="11.764" height="11.764"/>
	<rect x="23.528" y="41.189" fill="#E4482E" width="11.764" height="11.764"/>
	<rect x="35.293" y="41.189" fill="#FDD9CA" width="11.764" height="11.764"/>
	<rect x="47.057" y="41.189" fill="#F9B49A" width="11.764" height="11.764"/>
	<rect x="58.821" y="41.189" fill="#E4482E" width="11.764" height="11.764"/>
	<rect x="70.585" y="41.189" fill="#E4482E" width="11.764" height="11.764"/>
	<rect x="82.35" y="41.189" fill="#252625" width="11.764" height="11.764"/>
	<rect x="105.878" y="41.189" fill="#252625" width="11.764" height="11.764"/>
	<rect x="117.642" y="41.189" fill="#BB1E25" width="11.764" height="11.764"/>
	<rect x="129.406" y="41.189" fill="#E4482E" width="11.764" height="11.764"/>
	<rect x="141.171" y="41.189" fill="#E4482E" width="11.764" height="11.764"/>
	<rect x="164.699" y="41.189" fill="#BB1E25" width="11.764" height="11.764"/>
	<rect x="176.463" y="41.189" fill="#BB1E25" width="11.764" height="11.764"/>
	<rect y="52.953" fill="#252625" width="11.764" height="11.764"/>
	<rect x="11.764" y="52.953" fill="#E4482E" width="11.764" height="11.764"/>
	<rect x="23.528" y="52.953" fill="#FDD9CA" width="11.764" height="11.764"/>
	<rect x="35.293" y="52.953" fill="#F9B49A" width="11.764" height="11.764"/>
	<rect x="47.057" y="52.953" fill="#E4482E" width="11.764" height="11.764"/>
	<rect x="58.821" y="52.953" fill="#E4482E" width="11.764" height="11.764"/>
	<rect x="70.585" y="52.953" fill="#E4482E" width="11.764" height="11.764"/>
	<rect x="82.35" y="52.953" fill="#E4482E" width="11.764" height="11.764"/>
	<rect x="105.878" y="52.953" fill="#BB1E25" width="11.764" height="11.764"/>
	<rect x="117.642" y="52.953" fill="#E4482E" width="11.764" height="11.764"/>
	<rect x="129.406" y="52.953" fill="#E4482E" width="11.764" height="11.764"/>
	<rect x="141.171" y="52.953" fill="#E4482E" width="11.764" height="11.764"/>
	<rect x="152.935" y="52.953" fill="#E4482E" width="11.764" height="11.764"/>
	<rect x="176.463" y="52.953" fill="#BB1E25" width="11.764" height="11.764"/>
	<rect x="188.228" y="52.953" fill="#252625" width="11.764" height="11.764"/>
	<rect x="0.008" y="64.702" fill="#252625" width="11.764" height="11.764"/>
	<rect x="11.772" y="64.702" fill="#E4482E" width="11.764" height="11.764"/>
	<rect x="23.537" y="64.702" fill="#E4482E" width="11.764" height="11.764"/>
	<rect x="35.301" y="64.702" fill="#E4482E" width="11.764" height="11.764"/>
	<rect x="47.065" y="64.702" fill="#E4482E" width="11.764" height="11.764"/>
	<rect x="58.829" y="64.702" fill="#E4482E" width="11.764" height="11.764"/>
	<rect x="70.594" y="64.702" fill="#E4482E" width="11.764" height="11.764"/>
	<rect x="82.358" y="64.702" fill="#E4482E" width="11.764" height="11.764"/>
	<rect x="94.122" y="64.702" fill="#BB1E25" width="11.764" height="11.764"/>
	<rect x="105.886" y="64.702" fill="#E4482E" width="11.764" height="11.764"/>
	<rect x="117.65" y="64.702" fill="#E4482E" width="11.764" height="11.764"/>
	<rect x="129.415" y="64.702" fill="#E4482E" width="11.764" height="11.764"/>
	<rect x="141.179" y="64.702" fill="#E4482E" width="11.764" height="11.764"/>
	<rect x="152.943" y="64.702" fill="#E4482E" width="11.764" height="11.764"/>
	<rect x="164.707" y="64.702" fill="#E4482E" width="11.764" height="11.764"/>
	<rect x="176.472" y="64.702" fill="#BB1E25" width="11.764" height="11.764"/>
	<rect x="188.236" y="64.702" fill="#252625" width="11.764" height="11.764"/>
	<rect x="11.772" y="76.466" fill="#252625" width="11.764" height="11.764"/>
	<rect x="23.537" y="76.466" fill="#E4482E" width="11.764" height="11.764"/>
	<rect x="35.301" y="76.466" fill="#E4482E" width="11.764" height="11.764"/>
	<rect x="47.065" y="76.466" fill="#E4482E" width="11.764" height="11.764"/>
	<rect x="58.829" y="76.466" fill="#E4482E" width="11.764" height="11.764"/>
	<rect x="70.594" y="76.466" fill="#E4482E" width="11.764" height="11.764"/>
	<rect x="82.358" y="76.466" fill="#E4482E" width="11.765" height="11.764"/>
	<rect x="94.122" y="76.466" fill="#E4482E" width="11.764" height="11.764"/>
	<rect x="105.886" y="76.466" fill="#E4482E" width="11.764" height="11.764"/>
	<rect x="117.65" y="76.466" fill="#E4482E" width="11.764" height="11.764"/>
	<rect x="141.179" y="76.466" fill="#E4482E" width="11.764" height="11.764"/>
	<rect x="152.943" y="76.466" fill="#E4482E" width="11.764" height="11.764"/>
	<rect x="164.707" y="76.466" fill="#BB1E25" width="11.764" height="11.764"/>
	<rect x="176.472" y="76.466" fill="#252625" width="11.764" height="11.764"/>
	<rect x="11.772" y="88.23" fill="#252625" width="11.764" height="11.764"/>
	<rect x="23.537" y="88.23" fill="#E4482E" width="11.764" height="11.764"/>
	<rect x="35.301" y="88.23" fill="#E4482E" width="11.764" height="11.764"/>
	<rect x="47.065" y="88.23" fill="#E4482E" width="11.764" height="11.764"/>
	<rect x="58.829" y="88.23" fill="#E4482E" width="11.764" height="11.764"/>
	<rect x="70.594" y="88.23" fill="#E4482E" width="11.764" height="11.764"/>
	<rect x="82.358" y="88.23" fill="#E4482E" width="11.764" height="11.764"/>
	<rect x="94.122" y="88.23" fill="#E4482E" width="11.764" height="11.764"/>
	<rect x="105.886" y="88.23" fill="#E4482E" width="11.764" height="11.764"/>
	<rect x="117.65" y="88.23" fill="#E4482E" width="11.764" height="11.764"/>
	<rect x="129.415" y="88.23" fill="#E4482E" width="11.764" height="11.764"/>
	<rect x="141.179" y="88.23" fill="#E4482E" width="11.764" height="11.764"/>
	<rect x="152.943" y="88.23" fill="#E4482E" width="11.764" height="11.764"/>
	<rect x="164.707" y="88.23" fill="#BB1E25" width="11.764" height="11.764"/>
	<rect x="176.472" y="88.23" fill="#252625" width="11.764" height="11.764"/>
	<rect x="23.537" y="99.994" fill="#252625" width="11.764" height="11.764"/>
	<rect x="35.301" y="99.994" fill="#E4482E" width="11.764" height="11.764"/>
	<rect x="47.065" y="99.994" fill="#E4482E" width="11.764" height="11.764"/>
	<rect x="58.829" y="99.994" fill="#E4482E" width="11.764" height="11.764"/>
	<rect x="70.594" y="99.994" fill="#E4482E" width="11.764" height="11.764"/>
	<rect x="82.358" y="99.994" fill="#E4482E" width="11.765" height="11.764"/>
	<rect x="105.886" y="99.994" fill="#E4482E" width="11.764" height="11.764"/>
	<rect x="129.415" y="99.994" fill="#E4482E" width="11.764" height="11.764"/>
	<rect x="141.179" y="99.994" fill="#E4482E" width="11.764" height="11.764"/>
	<rect x="152.943" y="99.994" fill="#BB1E25" width="11.764" height="11.764"/>
	<rect x="164.707" y="99.994" fill="#252625" width="11.764" height="11.764"/>
	<rect x="35.285" y="111.77" fill="#252625" width="11.764" height="11.764"/>
	<rect x="47.05" y="111.77" fill="#E4482E" width="11.764" height="11.764"/>
	<rect x="58.814" y="111.77" fill="#E4482E" width="11.764" height="11.764"/>
	<rect x="70.578" y="111.77" fill="#E4482E" width="11.764" height="11.764"/>
	<rect x="82.342" y="111.77" fill="#E4482E" width="11.764" height="11.764"/>
	<rect x="94.106" y="111.77" fill="#E4482E" width="11.764" height="11.764"/>
	<rect x="105.871" y="111.77" fill="#E4482E" width="11.764" height="11.764"/>
	<rect x="117.635" y="111.77" fill="#E4482E" width="11.764" height="11.764"/>
	<rect x="129.399" y="111.77" fill="#E4482E" width="11.764" height="11.764"/>
	<rect x="141.163" y="111.77" fill="#BB1E25" width="11.764" height="11.764"/>
	<rect x="152.928" y="111.77" fill="#252625" width="11.764" height="11.764"/>
	<rect x="47.05" y="123.534" fill="#252625" width="11.764" height="11.764"/>
	<rect x="58.814" y="123.534" fill="#E4482E" width="11.764" height="11.764"/>
	<rect x="70.578" y="123.534" fill="#E4482E" width="11.764" height="11.764"/>
	<rect x="82.342" y="123.534" fill="#E4482E" width="11.764" height="11.764"/>
	<rect x="94.106" y="123.534" fill="#E4482E" width="11.764" height="11.764"/>
	<rect x="105.871" y="123.534" fill="#E4482E" width="11.764" height="11.764"/>
	<rect x="117.635" y="123.534" fill="#E4482E" width="11.764" height="11.764"/>
	<rect x="129.399" y="123.534" fill="#BB1E25" width="11.764" height="11.764"/>
	<rect x="141.163" y="123.534" fill="#252625" width="11.764" height="11.764"/>
	<rect x="58.814" y="135.298" fill="#252625" width="11.764" height="11.765"/>
	<rect x="70.578" y="135.298" fill="#E4482E" width="11.764" height="11.765"/>
	<rect x="82.342" y="135.298" fill="#E4482E" width="11.764" height="11.765"/>
	<rect x="94.106" y="135.298" fill="#E4482E" width="11.764" height="11.765"/>
	<rect x="105.871" y="135.298" fill="#E4482E" width="11.764" height="11.765"/>
	<rect x="117.635" y="135.298" fill="#BB1E25" width="11.764" height="11.765"/>
	<rect x="129.399" y="135.298" fill="#252625" width="11.764" height="11.765"/>
	<rect x="70.578" y="147.062" fill="#252625" width="11.764" height="11.764"/>
	<rect x="82.342" y="147.062" fill="#E4482E" width="11.764" height="11.764"/>
	<rect x="94.106" y="147.062" fill="#E4482E" width="11.764" height="11.764"/>
	<rect x="105.871" y="147.062" fill="#BB1E25" width="11.764" height="11.764"/>
	<rect x="117.635" y="147.062" fill="#252625" width="11.764" height="11.764"/>
	<rect x="82.35" y="158.811" fill="#252625" width="11.764" height="11.764"/>
	<rect x="105.879" y="158.811" fill="#252625" width="11.764" height="11.764"/>
	<rect x="94.115" y="170.575" fill="#252625" width="11.764" height="11.764"/>
	<rect x="152.935" y="41.189" fill="#E4482E" width="11.764" height="11.764"/>
	<rect x="94.114" y="52.953" fill="#252625" width="11.764" height="11.764"/>
	<rect x="94.122" y="99.994" fill="#E4482E" width="11.764" height="11.764"/>
</g>
</svg>
